<?xml version="1.0" standalone="no"?>
<!DOCTYPE svg PUBLIC "-//W3C//DTD SVG 20010904//EN"
 "http://www.w3.org/TR/2001/REC-SVG-20010904/DTD/svg10.dtd">
<svg version="1.0" xmlns="http://www.w3.org/2000/svg"
 width="229.000000pt" height="229.000000pt" viewBox="0 0 229.000000 229.000000"
 preserveAspectRatio="xMidYMid meet">
<metadata>
Created by potrace 1.14, written by Peter Selinger 2001-2017
</metadata>
<g transform="translate(0.000000,229.000000) scale(0.100000,-0.100000)"
fill="#000000" stroke="none">
<path d="M795 1795 c-38 -21 -95 -75 -95 -91 0 -7 -5 -14 -12 -16 -19 -7 -15
-107 6 -154 13 -28 34 -51 67 -73 l49 -32 -2 -302 c-3 -292 -4 -302 -23 -312
-91 -45 -136 -160 -95 -241 70 -140 245 -155 329 -28 63 96 34 194 -80 274
-19 14 -21 21 -14 70 5 39 15 61 34 79 48 46 65 56 126 75 33 10 71 23 85 27
14 5 42 11 63 15 20 3 40 10 43 15 3 5 15 9 28 9 31 0 155 65 192 101 37 36
83 125 92 180 5 30 14 44 37 57 52 30 73 56 95 115 21 56 21 58 4 104 -20 52
-58 97 -100 120 -34 18 -135 21 -155 5 -8 -7 -27 -22 -42 -33 -40 -30 -67 -90
-67 -148 0 -53 27 -120 48 -121 6 0 12 -4 12 -10 0 -5 14 -16 30 -25 24 -13
30 -22 30 -50 0 -44 -13 -77 -42 -106 -32 -33 -84 -69 -101 -69 -7 0 -17 -4
-23 -10 -5 -5 -30 -14 -54 -19 -25 -5 -70 -16 -100 -25 -30 -9 -71 -21 -90
-26 -40 -10 -97 -35 -122 -52 -9 -7 -21 -9 -25 -5 -4 5 -8 80 -9 168 l-1 160
27 22 c15 12 37 29 49 37 57 39 79 144 45 213 -20 40 -64 87 -80 87 -7 0 -14
4 -16 10 -6 18 -111 22 -143 5z m129 -127 c34 -48 11 -121 -41 -131 -30 -6
-73 8 -85 26 -12 19 -9 85 4 107 19 30 101 28 122 -2z m682 5 c7 -10 14 -35
14 -56 0 -64 -54 -101 -108 -73 -43 22 -57 64 -38 110 14 35 17 36 67 36 38 0
55 -5 65 -17z m-683 -974 c21 -26 22 -77 1 -107 -12 -17 -25 -22 -63 -22 -39
0 -50 4 -59 23 -25 49 -15 107 20 125 31 16 79 6 101 -19z"/>
</g>
</svg>
